<?xml version="1.0" standalone="no"?>
<!DOCTYPE svg PUBLIC "-//W3C//DTD SVG 20010904//EN"
 "http://www.w3.org/TR/2001/REC-SVG-20010904/DTD/svg10.dtd">
<svg version="1.0" xmlns="http://www.w3.org/2000/svg"
 width="700.000000pt" height="700.000000pt" viewBox="0 0 700.000000 700.000000"
 preserveAspectRatio="xMidYMid meet">
<metadata>
Created by potrace 1.14, written by Peter Selinger 2001-2017
</metadata>
<g transform="translate(0.000000,700.000000) scale(0.100000,-0.100000)"
fill="#000000" stroke="none">
<path d="M969 6597 c-70 -47 -68 -22 -69 -705 0 -679 -2 -658 64 -705 l31 -22
1490 -1 c820 -1 1508 -4 1530 -8 236 -39 358 -151 426 -391 29 -102 36 -256
15 -328 -21 -71 -94 -195 -146 -247 -9 -9 -74 -85 -120 -140 -25 -29 -50 -58
-55 -64 -6 -6 -141 -164 -300 -351 -159 -187 -292 -342 -295 -345 -3 -3 -41
-48 -85 -100 -44 -52 -82 -97 -85 -100 -3 -3 -85 -98 -182 -212 -97 -113 -218
-253 -269 -310 -122 -138 -136 -157 -142 -197 -8 -46 17 -103 56 -132 l32 -24
758 -3 c860 -3 783 -11 876 87 29 31 216 220 415 421 399 404 433 439 526 555
271 335 399 605 465 980 10 59 19 192 19 295 0 98 -12 299 -19 310 -2 3 -6 28
-9 55 -4 28 -14 79 -22 115 -9 36 -17 72 -19 80 -45 210 -168 484 -303 680
-36 52 -68 97 -71 100 -4 3 -19 21 -35 40 -56 70 -183 194 -273 266 -50 41
-94 74 -98 74 -3 0 -11 5 -18 10 -126 106 -495 258 -717 295 -19 3 -42 8 -50
10 -8 2 -41 7 -73 10 -32 4 -68 9 -80 13 -12 3 -722 7 -1578 9 l-1556 3 -34
-23z"/>
<path d="M2445 4980 c-18 -9 -61 -47 -96 -85 -35 -38 -217 -222 -404 -410
-483 -484 -590 -608 -742 -861 -92 -152 -179 -353 -208 -484 -39 -174 -43
-200 -52 -310 -11 -144 -5 -374 13 -476 7 -45 26 -147 30 -169 2 -11 6 -30 8
-42 26 -128 92 -315 166 -468 188 -389 485 -689 865 -874 195 -96 422 -165
610 -186 33 -4 69 -10 80 -13 11 -4 720 -8 1575 -10 1739 -3 1606 -9 1649 68
21 37 21 43 21 657 0 584 -1 620 -19 653 -10 19 -34 44 -52 55 -33 19 -56 20
-1534 21 -825 1 -1509 4 -1520 7 -11 3 -42 10 -68 16 -223 51 -362 260 -372
562 -4 109 8 161 55 244 27 48 104 150 140 187 8 8 33 37 55 64 22 26 49 58
60 70 11 12 39 44 61 71 23 26 59 68 80 93 68 78 79 92 200 235 65 77 123 145
129 151 5 6 30 35 55 64 87 105 366 432 395 464 6 6 35 40 65 76 30 36 60 70
65 76 6 6 35 39 65 74 71 82 105 120 215 245 57 64 65 125 26 189 -39 62 -5
60 -830 61 -680 1 -757 0 -786 -15z"/>
</g>
</svg>
